<?xml version="1.0" encoding="UTF-8"?>
<svg xmlns="http://www.w3.org/2000/svg" xmlns:xlink="http://www.w3.org/1999/xlink" width="375pt" height="374.999991pt" viewBox="0 0 375 374.999991" version="1.2">
<defs>
<clipPath id="clip1">
  <path d="M 6 16.875 L 373 16.875 L 373 358 L 6 358 Z M 6 16.875 "/>
</clipPath>
</defs>
<g id="surface1">
<g clip-path="url(#clip1)" clip-rule="nonzero">
<path style=" stroke:none;fill-rule:nonzero;fill:rgb(32.159424%,69.40918%,54.899597%);fill-opacity:1;" d="M 169.597656 227.984375 C 186.949219 227.984375 234.398438 234.695312 270.269531 241.929688 L 240.753906 256.785156 C 238.257812 258.015625 237.964844 262.167969 240.238281 263.757812 L 259.371094 276.4375 L 232.289062 293.433594 C 229.988281 294.796875 229.792969 298.558594 231.902344 300.148438 L 244.550781 310.300781 C 219.285156 313.152344 194.277344 317.273438 169.597656 317.273438 C 141.25 317.984375 116.308594 297.550781 116.894531 268.558594 C 116.859375 236.414062 149.035156 228.4375 169.597656 227.984375 Z M 169.597656 219.875 C 127.433594 219.875 108.785156 246.113281 108.785156 268.558594 C 109.171875 305.175781 138.882812 325.21875 169.597656 325.414062 C 198.460938 325.414062 226.972656 319.835938 255.089844 317.140625 C 258.171875 316.785156 259.597656 312.082031 257.230469 310.039062 L 241.402344 297.359375 L 269.003906 280.101562 C 271.308594 278.707031 271.40625 274.753906 269.132812 273.261719 L 250.519531 260.839844 L 284.832031 243.714844 C 287.847656 242.253906 287.199219 236.835938 283.957031 236.089844 C 246.042969 230.609375 209.328125 221.074219 169.597656 219.875 Z M 68.632812 97.210938 C 70.253906 114.335938 77.550781 128.800781 87.636719 142.75 L 82.1875 150.855469 C 31.949219 153.613281 14.371094 123.90625 15.441406 102.660156 C 28.253906 104.023438 44.632812 111.515625 68.632812 97.210938 Z M 116.894531 81.839844 C 110.179688 81.839844 104.730469 87.289062 104.730469 94.035156 C 104.730469 100.746094 110.179688 106.195312 116.894531 106.195312 C 123.605469 106.195312 129.054688 100.746094 129.054688 94.035156 C 129.054688 87.289062 123.605469 81.839844 116.894531 81.839844 Z M 149.324219 25.015625 C 197.425781 24.886719 234.042969 56.996094 234.429688 106.195312 C 234.429688 120.011719 232.484375 133.375 225.804688 145.796875 C 219.15625 158.1875 207.769531 169.796875 188.082031 179.65625 C 186.363281 180.535156 185.488281 182.738281 186.074219 184.554688 C 186.6875 186.371094 188.734375 187.570312 190.613281 187.28125 C 234.171875 179.332031 257.914062 191.980469 281.914062 202.230469 C 304.519531 211.863281 328.195312 218.058594 363.644531 201.582031 C 362.28125 239.074219 349.082031 275.464844 328.910156 302.710938 C 307.664062 331.414062 279.320312 349.769531 250.648438 349.769531 C 210.105469 349.769531 169.597656 349.769531 129.054688 349.769531 C 101.746094 347.726562 82.707031 337.054688 70.285156 322.234375 C 57.832031 307.347656 52.058594 288.050781 52.058594 268.558594 C 52.058594 229.863281 79.335938 202.328125 99.800781 177.742188 C 100.839844 176.445312 100.9375 174.46875 100.058594 173.042969 L 89.292969 155.039062 L 96.003906 144.890625 C 96.914062 143.496094 96.882812 141.546875 95.875 140.1875 C 84.425781 122.28125 76.089844 110.089844 76.351562 89.980469 C 76.351562 51.804688 110.664062 25.015625 149.324219 25.015625 Z M 149.324219 16.90625 C 107.8125 16.90625 70.089844 45.742188 68.503906 87.320312 C 42.394531 105.222656 29.386719 94.035156 11.515625 94.035156 C 9.636719 94 7.820312 95.460938 7.460938 97.34375 C 3.019531 124.066406 25.65625 161.785156 82.1875 158.964844 L 91.691406 174.695312 C 71.679688 198.4375 43.917969 227.269531 43.917969 268.558594 C 43.917969 289.671875 50.175781 310.851562 64.089844 327.421875 C 77.941406 343.996094 99.507812 355.769531 128.796875 357.878906 C 169.402344 357.878906 210.042969 357.878906 250.648438 357.878906 C 282.757812 357.878906 313.179688 337.671875 335.527344 307.507812 C 357.839844 277.347656 372.238281 237.03125 372.238281 195.515625 C 372.304688 192.695312 368.769531 190.523438 366.273438 191.820312 C 328.714844 211.636719 308.832031 204.792969 285.222656 194.738281 C 265.015625 186.144531 241.566406 175.601562 206.832031 177.742188 C 218.960938 169.277344 227.457031 159.875 232.90625 149.722656 C 240.429688 135.742188 242.539062 120.792969 242.539062 106.195312 C 242.054688 48.984375 201.964844 17.070312 149.324219 16.90625 "/>
</g>
</g>
</svg>
