<?xml version="1.0" encoding="UTF-8" standalone="no"?>
<svg
   xmlns:dc="http://purl.org/dc/elements/1.1/"
   xmlns:cc="http://creativecommons.org/ns#"
   xmlns:rdf="http://www.w3.org/1999/02/22-rdf-syntax-ns#"
   xmlns:svg="http://www.w3.org/2000/svg"
   xmlns="http://www.w3.org/2000/svg"
   xmlns:sodipodi="http://sodipodi.sourceforge.net/DTD/sodipodi-0.dtd"
   xmlns:inkscape="http://www.inkscape.org/namespaces/inkscape"
   id="e3553d74-0590-491b-b28e-952d4d1eac83"
   data-name="Layer 1"
   width="624.00006"
   height="738.39398"
   viewBox="0 0 624.00007 738.39398"
   version="1.1"
   sodipodi:docname="undraw_Taken_re_yn20.svg"
   inkscape:version="1.0.2 (e86c870879, 2021-01-15)">
  <metadata
     id="metadata93">
    <rdf:RDF>
      <cc:Work
         rdf:about="">
        <dc:format>image/svg+xml</dc:format>
        <dc:type
           rdf:resource="http://purl.org/dc/dcmitype/StillImage" />
        <dc:title></dc:title>
      </cc:Work>
    </rdf:RDF>
  </metadata>
  <defs
     id="defs91" />
  <sodipodi:namedview
     pagecolor="#ffffff"
     bordercolor="#666666"
     borderopacity="1"
     objecttolerance="10"
     gridtolerance="10"
     guidetolerance="10"
     inkscape:pageopacity="0"
     inkscape:pageshadow="2"
     inkscape:window-width="1920"
     inkscape:window-height="948"
     id="namedview89"
     showgrid="false"
     inkscape:zoom="1.2053186"
     inkscape:cx="313.75359"
     inkscape:cy="278.387"
     inkscape:window-x="1920"
     inkscape:window-y="28"
     inkscape:window-maximized="1"
     inkscape:current-layer="e3553d74-0590-491b-b28e-952d4d1eac83"
     inkscape:document-rotation="0"
     fit-margin-top="0"
     fit-margin-left="0"
     fit-margin-right="0"
     fit-margin-bottom="0" />
  <path
     d="m 466.99998,149.804 c -46.62012,-7.44 -99.71,-11.41 -155,-11.41 -50.6001,0 -99.3501,3.32 -142.98,9.58 0.0103,-0.67005 0.02,-1.34 0.0498,-2.01 a 148.99943,148.99943 0 0 1 297.91015,1.82 c 0.0103,0.68 0.02,1.35 0.02,2.02 z"
     fill="#52b18c"
     id="path2" />
  <g
     opacity="0.1"
     id="g6"
     transform="translate(-2e-5)">
    <path
       d="M 601.28454,82.14432 A 149.04745,149.04745 0 0 0 432.35339,225.373 c -0.0303,0.67 -0.04,1.34 -0.0498,2.01 12.96191,-1.85981 26.38476,-3.4535 40.165,-4.78431 A 149.02172,149.02172 0 0 1 601.28454,82.14432 Z"
       transform="translate(-263.73425,-80.80301)"
       fill="#ffffff"
       id="path4" />
  </g>
  <path
     d="m 532.18016,161.624 a 600.121,600.121 0 0 0 -65.2002,-13.84 943.3639,943.3639 0 0 0 -108.73974,-10.45 c -15.17041,-0.62 -30.62012,-0.94 -46.24024,-0.94 -12.37988,0 -24.66015,0.2 -36.77,0.6 a 973.28988,973.28988 0 0 0 -106.16015,8.97 624.29224,624.29224 0 0 0 -77.25,15.66 C 32.60983,177.994 0,199.934 0,223.394 c 0,23.46 32.60987,45.4 91.81983,61.77 41.64013,11.52 92.98,19.37 148.92041,22.97 23.08984,1.5 46.96,2.26 71.25976,2.26 24.37988,0 48.33008,-0.77 71.49024,-2.27 50.90966,-3.29 98.00976,-10.1 137.42968,-20 0.21,-0.06 0.41016,-0.11 0.62012,-0.16 2.66016,-0.66 5.27979,-1.35 7.87012,-2.04 0.92969,-0.26 1.84961,-0.51 2.77,-0.76 a 0.97843,0.97843 0 0 1 0.15967,-0.05 c 0.88037,-0.24 1.75,-0.49 2.62011,-0.73 1.74024,-0.5 3.46,-0.99 5.14991,-1.5 0.0801,-0.02 0.1499,-0.04 0.22021,-0.06 1.46973,-0.44 2.91016,-0.88 4.33984,-1.32 1.16993,-0.37 2.33008,-0.73 3.48,-1.1 q 1.26051,-0.405 2.49024,-0.81 c 0.6001,-0.2 1.18994,-0.39 1.77,-0.59 0.79,-0.26 1.58008,-0.53 2.35986,-0.8 0.33008,-0.11 0.66016,-0.22 0.98,-0.34 0.75,-0.25 1.48,-0.51 2.21,-0.77 0.79,-0.28 1.58008,-0.57 2.35987,-0.85 0.65039,-0.23 1.30029,-0.47 1.93994,-0.71 0.54,-0.21 1.07031,-0.41 1.61035,-0.61 1.46973,-0.55 2.91016,-1.12006 4.33008,-1.68 0.71,-0.29 1.41992,-0.57 2.11963,-0.86 0.68994,-0.28 1.39013,-0.57 2.07031,-0.86 q 1.67944,-0.70506 3.2998,-1.41 c 0.52,-0.24 1.0503,-0.47 1.56006,-0.68994 0.39014,-0.18 0.77,-0.35 1.16016,-0.53 0.27978,-0.12 0.56006,-0.25 0.83008,-0.38 1.00976,-0.46 2.00976,-0.93 2.98974,-1.4 q 5.64039,-2.7 10.52979,-5.52 c 20.45019,-11.71 31.24023,-24.7 31.24023,-38.2 -6e-5,-23.46006 -32.60992,-45.40006 -91.81988,-61.77006 z m -0.54,121.62 c -41.68994,11.53 -93.16992,19.38 -149.26026,22.95 -22.81005,1.45 -46.38964,2.2 -70.37988,2.2 -23.91015,0 -47.41015,-0.74 -70.1499,-2.19 -56.18018,-3.56 -107.74023,-11.41 -149.49023,-22.96 -58.27,-16.12 -90.35987,-37.37 -90.35987,-59.85 a 24.11774,24.11774 0 0 1 0.74024,-5.89 c 5.09961,-20.28 36.46972,-39.26 89.61963,-53.96 a 623.80606,623.80606 0 0 1 76.66015,-15.57 976.02713,976.02713 0 0 1 106.79981,-9 q 17.88061,-0.585 36.18017,-0.58 c 15.41016,0 30.6499,0.31 45.62988,0.91 a 941.36713,941.36713 0 0 1 109.37012,10.5 598.85754,598.85754 0 0 1 64.6401,13.74 c 53.14014,14.7 84.5,33.67 89.60986,53.94 a 23.82213,23.82213 0 0 1 0.75,5.91 c 0,22.48 -32.08984,43.73 -90.35986,59.85 z"
     fill="#3f3d56"
     id="path8" />
  <path
     d="m 623.43016,224.304 c 0,13.36005 -11.01026,26 -30.67041,37.29 -3.26953,1.88 -6.78955,3.72 -10.52979,5.52 -0.98,0.47 -1.98,0.94 -2.98974,1.4 -0.27,0.13 -0.5503,0.26 -0.83008,0.38 -0.39014,0.18 -0.77,0.35 -1.16016,0.53 -0.50976,0.22 -1.04,0.45 -1.56006,0.68994 q -1.6201,0.705 -3.2998,1.41 c -0.68018,0.29 -1.38037,0.58 -2.07031,0.86 -0.69971,0.29 -1.40967,0.57 -2.11963,0.86 -1.41992,0.56 -2.86035,1.13 -4.33008,1.68 -0.54,0.2 -1.07031,0.4 -1.61035,0.61 -0.63965,0.24 -1.28955,0.48 -1.93994,0.71 -0.77979,0.28 -1.56983,0.57 -2.35987,0.85 -0.73,0.26 -1.46,0.52 -2.21,0.77 -0.31982,0.12006 -0.6499,0.23 -0.98,0.34 -0.77978,0.27 -1.56982,0.54 -2.35986,0.8 -0.58008,0.2 -1.16992,0.39 -1.77,0.59 q -1.23046,0.40494 -2.49024,0.81 c -1.1499,0.37 -2.31,0.73 -3.48,1.1 -1.42968,0.44 -2.87011,0.88 -4.33984,1.32 -0.0703,0.02 -0.14014,0.04 -0.22021,0.06 -1.68995,0.51 -3.40967,1 -5.14991,1.5 -0.87011,0.24 -1.73974,0.49 -2.62011,0.73 a 0.97843,0.97843 0 0 0 -0.15967,0.05 c -0.92041,0.25 -1.84033,0.5 -2.77,0.76 -2.58008,0.68 -5.21,1.37 -7.87012,2.04 -0.21,0.05 -0.41016,0.1 -0.62012,0.16 -38.35009,9.58 -85.3999,16.56 -137.46972,19.93 -22.81006,1.47 -46.59033,2.25 -71.02,2.25 -24.6499,0 -48.63037,-0.79 -71.62012,-2.29 -137.24023,-8.95 -239.37988,-43.03 -239.37988,-83.71 a 25.07169,25.07169 0 0 1 1.11963,-7.3 c 0.0601,0.17 0.12011,0.33 0.19043,0.5 14.26953,37.48 115.54,67.77 246.93994,75.16 20.12988,1.13995 40.98,1.73 62.31982,1.73 21.43018,0 42.35987,-0.6 62.56983,-1.74 131.29,-7.42 232.46045,-37.72 246.68017,-75.17 q 0.36036,-0.90006 0.62988,-1.8 a 25.30451,25.30451 0 0 1 1.55032,8.62006 z"
     fill="#3f3d56"
     id="path10" />
  <path
     d="m 91.66929,213.54 c -16.6427,0 -34.33068,-3.58057 -34.33068,-10.2168 0,-6.63623 17.688,-10.2168 34.33068,-10.2168 16.64268,0 34.33069,3.58057 34.33069,10.2168 0,6.63623 -17.68799,10.2168 -34.33069,10.2168 z m 0,-18.4336 c -19.053,0 -32.33068,4.33057 -32.33068,8.2168 0,3.88623 13.2777,8.2168 32.33068,8.2168 19.05298,0 32.33069,-4.33057 32.33069,-8.2168 0,-3.88623 -13.27771,-8.21681 -32.33069,-8.21681 z"
     fill="#3f3d56"
     id="path12" />
  <path
     d="m 162.66917,260.54 c -16.64258,0 -34.33056,-3.58057 -34.33056,-10.2168 0,-6.63623 17.688,-10.2168 34.33056,-10.2168 16.64282,0 34.33081,3.58057 34.33081,10.2168 0,6.63623 -17.68799,10.2168 -34.33081,10.2168 z m 0,-18.4336 c -19.05286,0 -32.33056,4.33057 -32.33056,8.2168 0,3.88623 13.2777,8.2168 32.33056,8.2168 19.05286,0 32.33081,-4.33057 32.33081,-8.2168 0,-3.88623 -13.27783,-8.21681 -32.33081,-8.21681 z"
     fill="#3f3d56"
     id="path14" />
  <path
     d="m 531.66917,213.54 c -16.64258,0 -34.33056,-3.58057 -34.33056,-10.2168 0,-6.63623 17.688,-10.2168 34.33056,-10.2168 16.64282,0 34.33081,3.58057 34.33081,10.2168 0,6.63623 -17.68799,10.2168 -34.33081,10.2168 z m 0,-18.4336 c -19.053,0 -32.33056,4.33057 -32.33056,8.2168 0,3.88623 13.27758,8.2168 32.33056,8.2168 19.05298,0 32.33081,-4.33057 32.33081,-8.2168 0,-3.88623 -13.27783,-8.21681 -32.33081,-8.21681 z"
     fill="#3f3d56"
     id="path16" />
  <path
     d="m 460.66917,260.54 c -16.64258,0 -34.33056,-3.58057 -34.33056,-10.2168 0,-6.63623 17.688,-10.2168 34.33056,-10.2168 16.64282,0 34.33081,3.58057 34.33081,10.2168 0,6.63623 -17.68799,10.2168 -34.33081,10.2168 z m 0,-18.4336 c -19.053,0 -32.33056,4.33057 -32.33056,8.2168 0,3.88623 13.27758,8.2168 32.33056,8.2168 19.05298,0 32.33081,-4.33057 32.33081,-8.2168 0,-3.88623 -13.27783,-8.21681 -32.33081,-8.21681 z"
     fill="#3f3d56"
     id="path18" />
  <path
     d="m 311.66917,282.54 c -16.64258,0 -34.33056,-3.58057 -34.33056,-10.2168 0,-6.63623 17.688,-10.2168 34.33056,-10.2168 16.64282,0 34.33081,3.58057 34.33081,10.2168 0,6.63623 -17.68799,10.2168 -34.33081,10.2168 z m 0,-18.4336 c -19.053,0 -32.33056,4.33057 -32.33056,8.2168 0,3.88623 13.27758,8.2168 32.33056,8.2168 19.05298,0 32.33081,-4.33057 32.33081,-8.2168 0,-3.88623 -13.27783,-8.21681 -32.33081,-8.21681 z"
     fill="#3f3d56"
     id="path20" />
  <circle
     cx="336.97781"
     cy="450.70425"
     r="42.012329"
     fill="#2f2e41"
     id="circle22" />
  <rect
     x="49.981693"
     y="571.41272"
     width="22.867559"
     height="12.76328"
     transform="rotate(-26.60099)"
     fill="#2f2e41"
     id="rect24" />
  <ellipse
     cx="-246.3539"
     cy="521.87799"
     rx="3.9885299"
     ry="10.63605"
     transform="rotate(-56.60122)"
     fill="#2f2e41"
     id="ellipse26" />
  <rect
     x="-282.39587"
     y="529.76593"
     width="12.76328"
     height="22.867559"
     transform="rotate(-63.39901)"
     fill="#2f2e41"
     id="rect28" />
  <ellipse
     cx="40.780342"
     cy="617.34149"
     rx="10.63605"
     ry="3.9885299"
     transform="rotate(-33.39878)"
     fill="#2f2e41"
     id="ellipse30" />
  <circle
     cx="334.03659"
     cy="440.4278"
     r="14.35864"
     fill="#ffffff"
     id="circle32" />
  <ellipse
     cx="-70.813759"
     cy="543.35229"
     rx="4.7662401"
     ry="4.8000002"
     transform="rotate(-45)"
     fill="#3f3d56"
     id="ellipse34" />
  <path
     d="m 370.11973,404.99933 c 0.63177,-15.55359 -12.77314,-28.7276 -29.9408,-29.42493 -17.16766,-0.69733 -31.59692,11.346 -32.22873,26.8996 -0.63181,15.5536 11.30191,19.08746 28.46958,19.78485 17.16767,0.69739 33.06809,-1.70593 33.69995,-17.25952 z"
     fill="#52b18c"
     id="path36" />
  <ellipse
     cx="-8.6998043"
     cy="594.52142"
     rx="6.59448"
     ry="21.006161"
     transform="rotate(-40.64516)"
     fill="#2f2e41"
     id="ellipse38" />
  <ellipse
     cx="-155.44867"
     cy="520.15833"
     rx="21.006161"
     ry="6.59448"
     transform="rotate(-49.35484)"
     fill="#2f2e41"
     id="ellipse40" />
  <path
     d="m 348.51656,467.2608 a 9.5724422,9.5724422 0 0 1 -18.83533,3.42884 l -0.003,-0.0185 c -0.94177,-5.20214 3.08039,-7.043 8.28254,-7.98474 5.20215,-0.94174 9.61444,-0.62774 10.55615,4.5744 z"
     fill="#ffffff"
     id="path42" />
  <path
     d="m 265.99998,495.394 a 2.0001,2.0001 0 0 1 -2,-2 v -118 a 2,2 0 0 1 4,0 v 118 a 2.0001,2.0001 0 0 1 -2,2 z"
     fill="#cccccc"
     id="path44" />
  <path
     d="m 235.99998,601.394 a 2.0001,2.0001 0 0 1 -2,-2 v -86 a 2,2 0 1 1 4,0 v 86 a 2.0001,2.0001 0 0 1 -2,2 z"
     fill="#cccccc"
     id="path46" />
  <path
     d="m 312.99998,530.394 a 2.0001,2.0001 0 0 1 -2,-2 v -118 a 2,2 0 1 1 4,0 v 118 a 2.0001,2.0001 0 0 1 -2,2 z"
     fill="#cccccc"
     id="path48" />
  <path
     d="m 283.99998,615.394 a 2.0001,2.0001 0 0 1 -2,-2 v -48 a 2,2 0 1 1 4,0 v 48 a 2.0001,2.0001 0 0 1 -2,2 z"
     fill="#cccccc"
     id="path50" />
  <path
     d="m 324.99998,369.394 a 2.0001,2.0001 0 0 1 -2,-2 v -48 a 2,2 0 0 1 4,0 v 48 a 2.0001,2.0001 0 0 1 -2,2 z"
     fill="#cccccc"
     id="path52" />
  <path
     d="m 224.99998,390.394 a 2.0001,2.0001 0 0 1 -2,-2 v -48 a 2,2 0 0 1 4,0 v 48 a 2.0001,2.0001 0 0 1 -2,2 z"
     fill="#cccccc"
     id="path54" />
  <path
     d="m 398.99998,395.394 a 2.0001,2.0001 0 0 1 -2,-2 v -48 a 2,2 0 1 1 4,0 v 48 a 2.0001,2.0001 0 0 1 -2,2 z"
     fill="#cccccc"
     id="path56" />
  <path
     d="m 394.99998,545.394 a 2.0001,2.0001 0 0 1 -2,-2 v -58 a 2,2 0 1 1 4,0 v 58 a 2.0001,2.0001 0 0 1 -2,2 z"
     fill="#cccccc"
     id="path58" />
  <path
     d="m 354.99998,596.394 a 2.0001,2.0001 0 0 1 -2,-2 v -86 a 2,2 0 1 1 4,0 v 86 a 2.0001,2.0001 0 0 1 -2,2 z"
     fill="#cccccc"
     id="path60" />
  <path
     d="m 362.99998,449.394 a 2.0001,2.0001 0 0 1 -2,-2 v -118 a 2,2 0 1 1 4,0 v 118 a 2.0001,2.0001 0 0 1 -2,2 z"
     fill="#cccccc"
     id="path62" />
  <ellipse
     cx="-21.702991"
     cy="873.89691"
     rx="6.7600698"
     ry="21.533689"
     transform="rotate(-39.93837)"
     fill="#2f2e41"
     id="ellipse64" />
  <circle
     cx="-484.12714"
     cy="686.9068"
     r="43.067329"
     transform="rotate(-71.56505)"
     fill="#2f2e41"
     id="circle66" />
  <rect
     x="503.70728"
     y="710.302"
     width="13.08374"
     height="23.44171"
     fill="#2f2e41"
     id="rect68" />
  <rect
     x="477.53976"
     y="710.302"
     width="13.08374"
     height="23.44171"
     fill="#2f2e41"
     id="rect70" />
  <ellipse
     cx="505.88782"
     cy="734.0163"
     rx="10.90314"
     ry="4.0886798"
     fill="#2f2e41"
     id="ellipse72" />
  <ellipse
     cx="479.72037"
     cy="733.47113"
     rx="10.90314"
     ry="4.0886798"
     fill="#2f2e41"
     id="ellipse74" />
  <path
     d="m 485.03938,622.36553 c 3.84557,-15.487 20.82057,-24.60076 37.91471,-20.35617 17.09414,4.24459 27.83428,20.24028 23.98871,35.72729 -3.84557,15.48701 -16.60394,15.537 -33.69809,11.29233 -17.09415,-4.24467 -32.05092,-11.17641 -28.20533,-26.66345 z"
     fill="#cccccc"
     id="path76" />
  <ellipse
     cx="-400.32178"
     cy="687.97382"
     rx="6.7600698"
     ry="21.533689"
     transform="rotate(-64.62574)"
     fill="#2f2e41"
     id="ellipse78" />
  <circle
     cx="492.12366"
     cy="667.41486"
     r="14.35864"
     fill="#ffffff"
     id="circle80" />
  <circle
     cx="486.22226"
     cy="662.26807"
     r="4.7862201"
     fill="#3f3d56"
     id="circle82" />
  <circle
     cx="491.99997"
     cy="697.39398"
     r="6"
     fill="#ffffff"
     id="circle84" />
  <path
     d="m 621.53148,738.394 h -236 a 1,1 0 0 1 0,-2 h 236 a 1,1 0 0 1 0,2 z"
     fill="#3f3d56"
     id="path86" />
  <path
     style="fill:#ffffff;stroke-width:0.829656"
     d="M 259.52253,292.78854 C 154.53605,287.71635 65.66896,267.98892 24.748677,240.67156 16.815114,235.37531 8.2710419,226.95311 5.3070072,221.5072 l -2.3170157,-4.25712 2.5775227,-5.23569 C 10.388838,202.22089 24.203676,190.94341 41.742414,182.4837 108.31797,150.37137 237.56495,133.66008 368.20749,140.27265 c 116.19266,5.88117 210.91513,29.81768 242.33615,61.23871 5.34985,5.34985 9.87932,12.54907 9.87932,15.70236 0,0.85704 -1.44556,3.76288 -3.21235,6.45741 -23.20724,35.39334 -125.03851,63.03958 -254.81071,69.17876 -20.34773,0.96259 -82.44981,0.92557 -102.87737,-0.0613 z m 72.82052,-11.85776 c 19.68935,-4.31264 18.58493,-13.58249 -2.09692,-17.60041 -7.4367,-1.44476 -27.87634,-1.6564 -35.46321,-0.36721 -11.51077,1.95595 -17.83761,5.29384 -17.83761,9.41069 0,3.96942 6.77808,7.46553 18.02915,9.29939 9.15681,1.4925 28.96132,1.09902 37.36859,-0.74246 z M 181.53485,259.2191 c 14.7153,-2.70499 19.77008,-8.3385 12.38069,-13.79819 -9.01349,-6.65968 -46.6005,-7.36771 -60.21606,-1.1343 -10.74091,4.91735 -5.93597,12.11105 10.02572,15.00997 8.48619,1.54124 29.23502,1.49872 37.80965,-0.0775 z m 303.1397,-1.01634 c 6.92953,-2.03463 9.96576,-4.14951 10.32636,-7.1928 0.59093,-4.98714 -6.57892,-8.53326 -21.19746,-10.48398 -8.85824,-1.18207 -25.70367,-0.5666 -34.07037,1.2448 -9.53025,2.06331 -13.44966,4.6232 -13.44966,8.78444 0,3.04059 2.9637,5.41783 8.90921,7.14623 8.15558,2.37089 12.07932,2.71323 28.01049,2.44383 12.81857,-0.21677 16.82982,-0.57967 21.47143,-1.94252 z M 103.962,213.20655 c 17.40776,-1.93766 25.57272,-7.06634 20.87553,-13.11263 -4.07363,-5.24365 -25.635066,-8.64087 -43.465036,-6.84836 -15.596247,1.56795 -24.286065,5.12882 -24.286065,9.95184 0,4.19199 6.229682,7.61488 16.593124,9.11707 3.422331,0.49607 7.155784,1.03895 8.296561,1.2064 4.327694,0.63526 14.799988,0.48554 21.985886,-0.31432 z m 447.78758,-1.16867 c 7.77937,-1.6873 12.88548,-4.10473 14.0449,-6.6494 3.32913,-7.30664 -10.21266,-12.2603 -33.7299,-12.33858 -16.78783,-0.0559 -28.53524,2.24468 -33.10956,6.48401 -6.06272,5.61874 1.88871,11.32582 19.00541,13.64099 7.63662,1.03291 26.74998,0.38974 33.78915,-1.13702 z"
     id="path95" />
  <path
     style="fill:#ffffff;stroke-width:0.829656"
     d="m 150.42275,257.46385 c -10.56467,-1.3184 -19.49692,-4.6598 -19.49692,-7.29345 0,-3.1017 11.53321,-6.41476 26.13417,-7.50736 13.43366,-1.00526 32.92902,2.28255 36.42216,6.14243 1.36471,1.50798 1.35154,1.66338 -0.26887,3.17302 -2.14135,1.99497 -8.70995,4.08748 -16.24155,5.17395 -5.51364,0.79536 -21.19685,0.97932 -26.54899,0.31141 z"
     id="path97" />
  <path
     style="fill:#ffffff;stroke-width:0.829656"
     d="m 72.435068,209.35993 c -6.577951,-1.40161 -12.444842,-4.28222 -12.444842,-6.11035 0,-1.89108 6.839593,-4.85598 14.581881,-6.32109 10.100063,-1.91129 32.155003,-1.21106 39.885973,1.26635 3.03498,0.97256 6.39184,2.47578 7.4597,3.34047 1.90029,1.53877 1.90878,1.6084 0.39929,3.27636 -1.74238,1.92531 -6.89073,3.76199 -14.15175,5.04866 -7.21057,1.27772 -28.804582,0.9753 -35.730252,-0.5004 z"
     id="path99" />
  <path
     style="fill:#ffffff;stroke-width:0.829656"
     d="m 303.90914,279.91139 c -11.79552,-1.18047 -20.9198,-3.57169 -23.1867,-6.07658 -1.31332,-1.45121 -1.29509,-1.63648 0.3079,-3.1299 8.02148,-7.47314 49.131,-7.98953 60.17102,-0.75583 2.95018,1.93303 2.64354,3.53484 -1.03608,5.41204 -6.15656,3.14084 -25.75807,5.6009 -36.25614,4.55027 z"
     id="path101" />
  <path
     style="fill:#ffffff;stroke-width:0.829656"
     d="m 445.81263,257.10021 c -6.97066,-1.01555 -13.18992,-2.94373 -15.4824,-4.80006 -1.93328,-1.56548 -1.93808,-1.60799 -0.37696,-3.33301 4.10567,-4.53672 24.67167,-7.58778 40.19217,-5.96269 10.67844,1.1181 19.06769,3.46331 21.32959,5.96269 1.56113,1.72502 1.55632,1.76753 -0.37696,3.33301 -5.72509,4.6359 -29.27706,7.1323 -45.28544,4.80006 z"
     id="path103" />
  <path
     style="fill:#ffffff;stroke-width:0.829656"
     d="m 514.37598,209.80445 c -2.42775,-0.40384 -6.53455,-1.57423 -9.12621,-2.60086 -8.05885,-3.19235 -6.48328,-6.27431 4.82892,-9.44587 7.81844,-2.19203 35.32368,-2.19203 43.14212,0 11.25339,3.15507 12.8822,6.25578 4.93898,9.4022 -2.53114,1.00262 -7.01129,2.21384 -9.95588,2.69158 -6.33537,1.0279 -27.54298,0.9984 -33.82793,-0.0471 z"
     id="path105" />
  <path
     style="fill:#ffffff;stroke-width:0.829656"
     d="m 485.94706,679.79948 c -6.00715,-3.06279 -9.20504,-11.26229 -6.75461,-17.31903 l 1.00698,-2.48897 0.6676,2.3346 c 1.01005,3.53218 2.36693,4.71748 5.40037,4.71748 4.78584,0 6.93845,-5.03703 3.58552,-8.38996 -1.34473,-1.34472 -2.4069,-1.64655 -4.56311,-1.29664 -3.51159,0.56985 -3.53636,0.14896 -0.11402,-1.93768 3.82988,-2.33512 10.30875,-2.22549 13.96172,0.23625 8.65886,5.83521 8.94485,17.08336 0.59167,23.27065 -3.07589,2.27835 -10.14749,2.72644 -13.78212,0.8733 z"
     id="path107" />
  <path
     style="fill:#ffffff;stroke-width:0.829656"
     d="m 488.287,701.05946 c -3.28608,-3.28607 -0.89693,-9.12621 3.73345,-9.12621 2.6626,0 5.39277,2.73017 5.39277,5.39276 0,2.6626 -2.73017,5.39277 -5.39277,5.39277 -1.14077,0 -2.82083,-0.74669 -3.73345,-1.65932 z"
     id="path109" />
  <path
     style="fill:#ffffff;stroke-width:0.829656"
     d="m 329.62848,453.44064 c -4.04577,-1.45349 -8.49692,-6.34318 -9.20366,-10.11041 -0.28713,-1.53054 -0.26166,-4.1708 0.0566,-5.86725 0.79046,-4.21352 6.45455,-9.84321 10.70576,-10.64074 6.86753,-1.28835 14.40834,3.45976 16.22819,10.21818 2.80479,10.41621 -7.63913,20.04594 -17.78688,16.40022 z m 7.93065,-15.4311 c 2.44762,-2.44761 1.9049,-6.55644 -1.08599,-8.22176 -2.04874,-1.14073 -2.51437,-1.14071 -4.56311,1.9e-4 -3.14768,1.75287 -3.66078,6.67126 -0.89785,8.60649 2.54205,1.78052 4.49642,1.66561 6.54695,-0.38492 z"
     id="path111" />
  <path
     style="fill:#ffffff;stroke-width:0.829656"
     d="m 332.80946,475.00645 c -5.46903,-5.46903 -2.31078,-11.13191 6.6215,-11.87265 5.58292,-0.46298 7.80739,0.6605 8.48768,4.28675 1.02366,5.45661 -3.28997,10.46141 -9.01669,10.46141 -2.56432,0 -3.80037,-0.58339 -6.09249,-2.87551 z"
     id="path113" />
</svg>
